<?xml version="1.0" standalone="no"?>
<!DOCTYPE svg PUBLIC "-//W3C//DTD SVG 1.1//EN" "http://www.w3.org/Graphics/SVG/1.1/DTD/svg11.dtd">
<svg xmlns="http://www.w3.org/2000/svg" id="Layer_1" data-name="Layer 1" viewBox="0 0 174.33 171.93" width="174.3300018310547" height="171.92999267578125"><defs><style>.cls-1{fill:#72897e;}.cls-2{fill:#a0bbac;}.cls-3{fill:#d5b296;}.cls-4{fill:#af937a;}.cls-5{fill:#8bd6f7;}.cls-6{fill:#4e7d9c;}</style></defs><path class="cls-1" d="M42.44,155.69s-56.6-21.76-27-86l25.42,80.86L15.4,69.68"/><path class="cls-2" d="M42.44,155.69s34-50.24-27-86l25.42,80.86L15.4,69.68"/><path class="cls-3" d="M42.46,155.7s31-83.08,125.35-40.78L50,153.25l117.84-38.33"/><path class="cls-4" d="M42.46,155.7s73.94,48.94,125.35-40.78L50,153.25l117.84-38.33"/><path class="cls-5" d="M42.56,155.75S12.76,47.22,139.42,2.9L48.36,146.59,139.42,2.9"/><path class="cls-6" d="M42.43,155.75S153.29,136.35,139.28,2.9L48.23,146.59,139.28,2.9"/></svg>